<?xml version="1.0"?>
<svg xmlns="http://www.w3.org/2000/svg" viewBox="0 0 64 64" width="512" height="512"><g id="Flat_Icon" data-name="Flat Icon"><circle cx="32" cy="32" r="16" style="fill:#f9e109"/><path d="M36.92,40.62A18.46,18.46,0,0,1,18.52,23.4,16,16,0,1,0,47,37.64,18.42,18.42,0,0,1,36.92,40.62Z" style="fill:#fcbc04"/><circle cx="32" cy="32" r="11.08" style="fill:#e59730"/><path d="M7,24H8V23a4,4,0,0,1,4-4h4a2,2,0,0,1,2,2v1a2,2,0,0,1-2,2h6a2,2,0,0,1,0,4,2,2,0,0,1,0,4,2,2,0,0,1,0,4,2,2,0,0,1,0,4H7a4,4,0,0,1-4-4V28A4,4,0,0,1,7,24Z" style="fill:#57b7eb"/><path d="M21,26a2,2,0,0,0,2-1.74,2,2,0,0,1,1,1.88A2.09,2.09,0,0,1,21.87,28H17a1,1,0,0,1-1-1h0a1,1,0,0,1,1-1Z" style="fill:#4891d3"/><path d="M21,30a2,2,0,0,0,2-1.74,2,2,0,0,1,1,1.88A2.09,2.09,0,0,1,21.87,32H17a1,1,0,0,1-1-1h0a1,1,0,0,1,1-1Z" style="fill:#4891d3"/><path d="M21,34a2,2,0,0,0,2-1.74,2,2,0,0,1,1,1.88A2.09,2.09,0,0,1,21.87,36H17a1,1,0,0,1-1-1h0a1,1,0,0,1,1-1Z" style="fill:#4891d3"/><path d="M21,38a2,2,0,0,0,2-1.74,2,2,0,0,1,1,1.88A2.09,2.09,0,0,1,21.87,40H17a1,1,0,0,1-1-1h0a1,1,0,0,1,1-1Z" style="fill:#4891d3"/><path d="M14,22a2,2,0,0,0,2-2V19a2,2,0,0,1,2,2v1a2,2,0,0,1-2,2H12a1,1,0,0,1-1-1h0a1,1,0,0,1,1-1Z" style="fill:#4891d3"/><path d="M7,38H22a2,2,0,0,0,1.72-1A2,2,0,0,1,22,40H7a4,4,0,0,1-4-4V34A4,4,0,0,0,7,38Z" style="fill:#4891d3"/><path d="M57,24H56V23a4,4,0,0,0-4-4H48a2,2,0,0,0-2,2v1a2,2,0,0,0,2,2H42a2,2,0,0,0,0,4,2,2,0,0,0,0,4,2,2,0,0,0,0,4,2,2,0,0,0,0,4H57a4,4,0,0,0,4-4V28A4,4,0,0,0,57,24Z" style="fill:#57b7eb"/><path d="M43,26a2,2,0,0,1-2-1.74,2,2,0,0,0-1,1.88A2.09,2.09,0,0,0,42.13,28H47a1,1,0,0,0,1-1h0a1,1,0,0,0-1-1Z" style="fill:#4891d3"/><path d="M43,30a2,2,0,0,1-2-1.74,2,2,0,0,0-1,1.88A2.09,2.09,0,0,0,42.13,32H47a1,1,0,0,0,1-1h0a1,1,0,0,0-1-1Z" style="fill:#4891d3"/><path d="M43,34a2,2,0,0,1-2-1.74,2,2,0,0,0-1,1.88A2.09,2.09,0,0,0,42.13,36H47a1,1,0,0,0,1-1h0a1,1,0,0,0-1-1Z" style="fill:#4891d3"/><path d="M43,38a2,2,0,0,1-2-1.74,2,2,0,0,0-1,1.88A2.09,2.09,0,0,0,42.13,40H47a1,1,0,0,0,1-1h0a1,1,0,0,0-1-1Z" style="fill:#4891d3"/><path d="M50,22a2,2,0,0,1-2-2V19a2,2,0,0,0-2,2v1a2,2,0,0,0,2,2h4a1,1,0,0,0,1-1h0a1,1,0,0,0-1-1Z" style="fill:#4891d3"/><path d="M57,38H42a2,2,0,0,1-1.72-1A2,2,0,0,0,42,40H57a4,4,0,0,0,4-4V34A4,4,0,0,1,57,38Z" style="fill:#4891d3"/><polyline points="54 16 54 12 59 12 49 3 39 12 44 12 44 16" style="fill:#a1d51c"/><polyline points="18 48 18 52 23 52 13 61 3 52 8 52 8 44" style="fill:#a1d51c"/><path d="M54,15.41V12h5L49,3V8A8,8,0,0,0,54,15.41Z" style="fill:#c4f236"/><path d="M18,52V48l-5-2v5a10,10,0,0,0,3.09,7.22L23,52Z" style="fill:#c4f236"/><path d="M32,31a1.5,1.5,0,0,1,0-3h0a1.51,1.51,0,0,1,1.49,1.5,1,1,0,0,0,2,0A3.51,3.51,0,0,0,33,26.15V25a1,1,0,0,0-2,0v1.15A3.5,3.5,0,0,0,32,33a1.5,1.5,0,1,1-1.5,1.5,1,1,0,0,0-2,0A3.51,3.51,0,0,0,31,37.85V39a1,1,0,0,0,2,0V37.85A3.5,3.5,0,0,0,32,31Z" style="fill:#f9e109"/><path d="M32,57a1,1,0,0,0-1,1v3a1,1,0,0,0,2,0V58A1,1,0,0,0,32,57Z" style="fill:#a1d51c"/><path d="M32,51a1,1,0,0,0-1,1v2a1,1,0,0,0,2,0V52A1,1,0,0,0,32,51Z" style="fill:#a1d51c"/><path d="M32,7a1,1,0,0,0,1-1V3a1,1,0,0,0-2,0V6A1,1,0,0,0,32,7Z" style="fill:#a1d51c"/><path d="M32,13a1,1,0,0,0,1-1V10a1,1,0,0,0-2,0v2A1,1,0,0,0,32,13Z" style="fill:#a1d51c"/></g></svg>
