<?xml version="1.0" encoding="utf-8"?>
<!-- Generator: Adobe Illustrator 17.0.0, SVG Export Plug-In . SVG Version: 6.00 Build 0)  -->
<!DOCTYPE svg PUBLIC "-//W3C//DTD SVG 1.1//EN" "http://www.w3.org/Graphics/SVG/1.1/DTD/svg11.dtd">
<svg version="1.1" id="Capa_1" xmlns="http://www.w3.org/2000/svg" xmlns:xlink="http://www.w3.org/1999/xlink" x="0px" y="0px"
	 width="820px" height="461px" viewBox="0 0 820 461" enable-background="new 0 0 820 461" xml:space="preserve">
<path fill="#FF7058" d="M572.431,148.372h-95.189v172.525h155.959v-77.653l-18.189-62.864
	C609.529,161.423,592.166,148.372,572.431,148.372"/>
<path fill="#84DBFF" d="M610.431,242.447l-16.21-56.036c-2.795-9.632-11.755-16.374-21.79-16.374h-73.523v72.41L610.431,242.447
	L610.431,242.447z"/>
<polygon fill="#CDD6E0" points="610.451,242.418 498.87,242.418 498.87,170.008 "/>
<path fill="#F2F2F2" d="M610.431,242.447l-16.21-56.036c-2.795-9.632-11.755-16.374-21.79-16.374h-73.523L610.431,242.447z"/>
<path fill="#FFD15C" d="M208.31,61.759h240.122c15.903,0,28.81,12.897,28.81,28.81v230.318H179.5V90.569
	C179.5,74.657,192.397,61.759,208.31,61.759"/>
<path fill="#334A5E" d="M640.5,320.877v32.555H179.539v-32.555h48.113c11.236-20.167,32.843-33.804,57.62-33.804
	c24.68,0,46.288,13.637,57.62,33.804h154.806c11.236-20.167,32.738-33.804,57.515-33.804s46.288,13.637,57.62,33.804H640.5z"/>
<path fill="#40596B" d="M601.222,353.23c0,25.41-20.599,46.01-46.01,46.01c-25.41,0-45.991-20.599-45.991-46.01
	c0-25.41,20.589-46.01,45.991-46.01C580.633,307.221,601.222,327.82,601.222,353.23"/>
<path fill="#ACB3BA" d="M573.708,353.23c0,10.209-8.278,18.477-18.477,18.477c-10.209,0-18.496-8.268-18.496-18.477
	s8.278-18.477,18.496-18.477C565.43,334.744,573.708,343.023,573.708,353.23"/>
<path fill="#40596B" d="M331.243,353.23c0,25.41-20.609,46.01-46.01,46.01c-25.41,0-46.01-20.599-46.01-46.01
	c0-25.41,20.599-46.01,46.01-46.01C310.634,307.221,331.243,327.82,331.243,353.23"/>
<path fill="#ACB3BA" d="M303.71,353.23c0,10.209-8.268,18.477-18.477,18.477c-10.209,0-18.486-8.268-18.486-18.477
	s8.278-18.477,18.486-18.477C295.441,334.753,303.71,343.023,303.71,353.23"/>
</svg>
