<svg xmlns="http://www.w3.org/2000/svg" id="Group_72" width="32.964" height="32.964" data-name="Group 72" viewBox="0 0 32.964 32.964">
    <defs>
        <style>
            .cls-1{fill:#fff}
        </style>
    </defs>
    <path id="Path_64" d="M696.873-723.966a16.482 16.482 0 0 0-16.482-16.482 16.482 16.482 0 0 0-16.482 16.482 16.482 16.482 0 0 0 16.482 16.482 16.482 16.482 0 0 0 16.482-16.482zm-31.466 0a14.983 14.983 0 0 1 14.984-14.984 14.983 14.983 0 0 1 14.984 14.984 14.983 14.983 0 0 1-14.984 14.984 14.983 14.983 0 0 1-14.984-14.984z" class="cls-1" data-name="Path 64" transform="translate(-663.909 740.448)"/>
    <path id="Path_65" d="M890.258-604.474v-6.626h2.187l.346-2.2h-2.532v-1.1c0-.573.188-1.12 1.01-1.12h1.644v-2.192h-2.334c-1.962 0-2.5 1.292-2.5 3.083v1.329h-1.346v2.2h1.346v6.627z" class="cls-1" data-name="Path 65" transform="translate(-873.387 627.203)"/>
</svg>
