<svg xmlns="http://www.w3.org/2000/svg" id="Group_76" width="32.964" height="32.964" data-name="Group 76" viewBox="0 0 32.964 32.964">
    <defs>
        <style>
            .cls-1{fill:#fff}
        </style>
    </defs>
    <path id="Path_71" d="M1645.93 165.63a16.482 16.482 0 1 0-16.482 16.482 16.482 16.482 0 0 0 16.482-16.482zm-31.466 0a14.984 14.984 0 1 1 14.984 14.984 14.983 14.983 0 0 1-14.984-14.984z" class="cls-1" data-name="Path 71" transform="translate(-1612.966 -149.148)"/>
    <g id="Group_77" data-name="Group 77" transform="translate(1.898 1.898)">
        <path id="Path_72" d="M1768.573 314.024a3.518 3.518 0 0 1-3.514-3.515v-5.755a3.518 3.518 0 0 1 3.514-3.515h5.755a3.519 3.519 0 0 1 3.515 3.515v5.755a3.519 3.519 0 0 1-3.514 3.515zm0-11.813a2.546 2.546 0 0 0-2.543 2.543v5.755a2.546 2.546 0 0 0 2.543 2.543h5.755a2.546 2.546 0 0 0 2.544-2.543v-5.755a2.546 2.546 0 0 0-2.543-2.543z" class="cls-1" data-name="Path 72" transform="translate(-1756.866 -293.048)"/>
        <path id="Path_73" d="M1777.044 304.075h-5.755a3.4 3.4 0 0 0-3.4 3.4v5.755a3.4 3.4 0 0 0 3.4 3.4h5.755a3.4 3.4 0 0 0 3.4-3.4v-5.755a3.4 3.4 0 0 0-3.4-3.4zm2.661 9.152a2.664 2.664 0 0 1-2.661 2.661h-5.755a2.664 2.664 0 0 1-2.661-2.661v-5.755a2.664 2.664 0 0 1 2.661-2.661h5.755a2.664 2.664 0 0 1 2.661 2.661z" class="cls-1" data-name="Path 73" transform="translate(-1759.582 -295.765)"/>
        <path id="Path_74" d="M1837.064 376.795a3.549 3.549 0 1 1 3.549-3.549 3.553 3.553 0 0 1-3.549 3.549zm0-6.127a2.578 2.578 0 1 0 2.578 2.578 2.581 2.581 0 0 0-2.578-2.578z" class="cls-1" data-name="Path 74" transform="translate(-1822.48 -358.662)"/>
        <path id="Path_75" d="M1839.781 372.533a3.431 3.431 0 1 0 3.431 3.431 3.435 3.435 0 0 0-3.431-3.431zm0 6.127a2.7 2.7 0 1 1 2.7-2.7 2.7 2.7 0 0 1-2.7 2.7z" class="cls-1" data-name="Path 75" transform="translate(-1825.197 -361.38)"/>
        <path id="Path_76" d="M1980.159 343.192a1.014 1.014 0 1 0 1.014 1.014 1.015 1.015 0 0 0-1.014-1.014zm0 1.292a.278.278 0 1 1 .278-.278.279.279 0 0 1-.278.278z" class="cls-1" data-name="Path 76" transform="translate(-1962.062 -333.258)"/>
    </g>
</svg>
