<svg xmlns="http://www.w3.org/2000/svg" width="219.065" height="52.133" viewBox="0 0 219.065 52.133">
    <defs>
        <style>
            .cls-1{fill:#fff}.cls-2{clip-path:url(#clip-path)}.cls-3{fill:#ffc20e}
        </style>
        <clipPath id="clip-path">
            <path id="Rectangle_1" d="M0 0h219.065v52.133H0z" class="cls-1" data-name="Rectangle 1"/>
        </clipPath>
    </defs>
    <g id="DBR_LOGO" data-name="DBR LOGO" transform="translate(-64 -41.888)">
        <g id="Group_89" data-name="Group 89">
            <g id="Group_88" data-name="Group 88">
                <g id="Group_63" data-name="Group 63" transform="translate(-76)">
                    <g id="Group_1" class="cls-2" data-name="Group 1" transform="translate(140 41.888)">
                        <path id="Path_1" d="M38.8 47.566l-9.15-18.3H57a18.444 18.444 0 0 1 18.3 17.981 17.991 17.991 0 0 1-5.213 12.98 18.756 18.756 0 0 1-13.406 5.639H29.548zM56.466 21.5H17.1l12.98 26.066L17.1 73.527h39.791a25.979 25.979 0 0 0 26.067-26.492A26.448 26.448 0 0 0 56.466 21.5" class="cls-3" data-name="Path 1" transform="translate(-17.1 -21.394)"/>
                    </g>
                    <g id="Group_2" class="cls-2" data-name="Group 2" transform="translate(140 41.888)">
                        <path id="Path_2" d="M44.2 34.51c-.106-.213-.319-.213-.532 0a5.8 5.8 0 0 0-1.068 4.362c0 .106 2.873 5.958 2.873 5.958s1.383 2.979 3.724 2.128c.106-.106.319 0 .426.106l7.023 11.916a1.208 1.208 0 0 0 1.7.426l.851-.532a1.2 1.2 0 0 0 .319-1.7z" class="cls-3" data-name="Path 2" transform="translate(-15.472 -20.572)"/>
                    </g>
                    <g id="Group_3" class="cls-2" data-name="Group 3" transform="translate(140 41.888)">
                        <path id="Path_3" d="M43.1 57.031l1.915 1.277a.946.946 0 0 0 1.383-.319l4.575-7.235-1.6-2.553z" class="cls-3" data-name="Path 3" transform="translate(-15.438 -19.686)"/>
                    </g>
                    <g id="Group_4" class="cls-2" data-name="Group 4" transform="translate(140 41.888)">
                        <path id="Path_4" d="M60.725 36.841a.554.554 0 0 0-.851.106l-3.085 4.894a.512.512 0 0 1-.638.213.61.61 0 0 1-.213-.745l3.085-4.788a.526.526 0 0 0-.106-.745.514.514 0 0 0-.745.106l-3.3 4.894c-.106.106-.106.106-.213.106-.213 0-.426-.106-.426-.319v-.213l3.085-4.894a.655.655 0 0 0-.106-.745l-.106-.106a.659.659 0 0 0-.851.106l-3.83 5.852a1.8 1.8 0 0 0-.319 1.064 13.566 13.566 0 0 0 .106 2.021v.532a1.8 1.8 0 0 0-.213.532c-.106.106 1.383 1.6 1.383 1.6s.213-1.383.638-1.383a5.146 5.146 0 0 0 3.192-1.7c.851-1.17 2.979-4.575 3.724-5.852.106 0 0-.319-.213-.532" class="cls-3" data-name="Path 4" transform="translate(-14.869 -20.563)"/>
                    </g>
                    <path id="Path_5" d="M30.074 46.337L17.2 72.4l8.3.106L38.692 46.55l-4.363-9.15z" class="cls-3" data-name="Path 5" transform="translate(122.906 21.511)"/>
                    <path id="Path_6" d="M17.1 21.4l12.98 25.96 4.256-8.937L25.4 21.4z" class="cls-3" data-name="Path 6" transform="translate(122.9 20.488)"/>
                    <g id="Group_6" class="cls-2" data-name="Group 6" transform="translate(140 41.888)">
                        <path id="Path_7" d="M94.967 41.714a7.709 7.709 0 0 0 3.511-.745 6.479 6.479 0 0 0 2.341-2.128 6.816 6.816 0 0 0 0-6.6 4.579 4.579 0 0 0-2.341-2.128 7.14 7.14 0 0 0-3.511-.745H90.6v12.346zM87.2 26.5h7.873a11.285 11.285 0 0 1 5.107 1.17 8.491 8.491 0 0 1 3.511 3.192 8.839 8.839 0 0 1 1.277 4.681 8.33 8.33 0 0 1-1.277 4.681 8.491 8.491 0 0 1-3.511 3.192 11.285 11.285 0 0 1-5.107 1.17H87.2z" class="cls-1" data-name="Path 7" transform="translate(-12.618 -21.074)"/>
                    </g>
                    <g id="Group_7" class="cls-2" data-name="Group 7" transform="translate(140 41.888)">
                        <path id="Path_8" d="M106.932 30.864h3.192v13.725h-3.192zm.106-2.766a1.716 1.716 0 0 1-.638-1.383 1.873 1.873 0 0 1 .638-1.383 2.306 2.306 0 0 1 1.49-.532 2.542 2.542 0 0 1 1.49.532 1.517 1.517 0 0 1 .638 1.277 2.023 2.023 0 0 1-.532 1.383 2.1 2.1 0 0 1-1.49.532 2.035 2.035 0 0 1-1.6-.426" class="cls-1" data-name="Path 8" transform="translate(-11.39 -21.183)"/>
                    </g>
                    <g id="Group_8" class="cls-2" data-name="Group 8" transform="translate(140 41.888)">
                        <path id="Path_9" d="M121.88 30.4v3.085c-.319 0-.532-.106-.745-.106a3.942 3.942 0 0 0-2.979 1.064 4.3 4.3 0 0 0-1.064 3.192v6.7H113.9V30.506h3.085v2.021c.851-1.49 2.553-2.128 4.894-2.128" class="cls-1" data-name="Path 9" transform="translate(-10.911 -20.825)"/>
                    </g>
                    <g id="Group_9" class="cls-2" data-name="Group 9" transform="translate(140 41.888)">
                        <path id="Path_10" d="M127.269 33.8a3.47 3.47 0 0 0-1.277 2.447h7.767a3.692 3.692 0 0 0-1.277-2.447 3.89 3.89 0 0 0-2.66-.958 4.943 4.943 0 0 0-2.553.958m9.469 4.575h-10.746a3.712 3.712 0 0 0 1.489 2.447 4.689 4.689 0 0 0 2.979.851 5.135 5.135 0 0 0 3.724-1.49l1.7 2.021a6.344 6.344 0 0 1-2.341 1.7 7.752 7.752 0 0 1-3.192.532 8.952 8.952 0 0 1-3.937-.851 7.147 7.147 0 0 1-2.66-9.788 7.335 7.335 0 0 1 2.553-2.553 6.994 6.994 0 0 1 3.617-.851 7.89 7.89 0 0 1 3.617.851 6.022 6.022 0 0 1 2.447 2.447 7.136 7.136 0 0 1 .851 3.724c0 .319-.106.638-.106.958" class="cls-1" data-name="Path 10" transform="translate(-10.342 -20.825)"/>
                    </g>
                    <g id="Group_10" class="cls-2" data-name="Group 10" transform="translate(140 41.888)">
                        <path id="Path_11" d="M141.417 43.586a7.147 7.147 0 0 1-2.66-9.788 5.933 5.933 0 0 1 2.66-2.447 7.791 7.791 0 0 1 3.83-.851 7.89 7.89 0 0 1 3.617.851 5.52 5.52 0 0 1 2.341 2.341l-2.447 1.49a3.706 3.706 0 0 0-1.49-1.383 4.429 4.429 0 0 0-4.894.745 4.652 4.652 0 0 0 0 6.171 4.179 4.179 0 0 0 2.979 1.17 3.644 3.644 0 0 0 1.915-.426 3.706 3.706 0 0 0 1.49-1.383l2.447 1.49a5 5 0 0 1-2.341 2.341 7.775 7.775 0 0 1-3.511.851 17.278 17.278 0 0 1-3.937-1.17" class="cls-1" data-name="Path 11" transform="translate(-9.383 -20.818)"/>
                    </g>
                    <g id="Group_11" class="cls-2" data-name="Group 11" transform="translate(140 41.888)">
                        <path id="Path_12" d="M161.507 43.665a5.731 5.731 0 0 1-1.383.745 4.41 4.41 0 0 1-1.7.213 5.17 5.17 0 0 1-3.511-1.17 4.336 4.336 0 0 1-1.277-3.4v-6.7H151.4v-2.561h2.234V27.6h3.192v3.192h3.724v2.553h-3.724v6.49a2.1 2.1 0 0 0 .532 1.49 2.023 2.023 0 0 0 1.383.532 3.3 3.3 0 0 0 1.809-.532z" class="cls-1" data-name="Path 12" transform="translate(-8.513 -21.004)"/>
                    </g>
                    <g id="Group_12" class="cls-2" data-name="Group 12" transform="translate(140 41.888)">
                        <path id="Path_13" d="M95.892 62.57a5.7 5.7 0 0 0 1.6-1.6 4.462 4.462 0 0 0 .532-2.341 5.417 5.417 0 0 0-.532-2.341 4.582 4.582 0 0 0-1.6-1.6 3.877 3.877 0 0 0-2.234-.532 4.945 4.945 0 0 0-2.234.532 4.4 4.4 0 0 0-2.024 3.945 5.416 5.416 0 0 0 .532 2.341 5.339 5.339 0 0 0 1.49 1.6 4.958 4.958 0 0 0 4.469 0m.851-9.043a4.885 4.885 0 0 1 2.021 2.128 5.773 5.773 0 0 1 .745 3.085 6.026 6.026 0 0 1-.745 3.085 6.448 6.448 0 0 1-2.021 2.128 5.641 5.641 0 0 1-2.979.745 5.768 5.768 0 0 1-2.66-.638 5.156 5.156 0 0 1-1.915-1.809v2.341H87.7V48.1h1.6v6.916a4.94 4.94 0 0 1 1.915-1.7 5.01 5.01 0 0 1 2.553-.532 5.641 5.641 0 0 1 2.979.745" class="cls-1" data-name="Path 13" transform="translate(-12.586 -19.693)"/>
                    </g>
                    <g id="Group_13" class="cls-2" data-name="Group 13" transform="translate(140 41.888)">
                        <path id="Path_14" d="M110.848 52.6l-2.635 5.953-3.113 7.027a6.907 6.907 0 0 1-1.6 2.341 3.109 3.109 0 0 1-2.234.638 8.213 8.213 0 0 1-1.6-.213A5.03 5.03 0 0 1 98.4 67.6l.745-1.17a2.732 2.732 0 0 0 2.128.851 2.138 2.138 0 0 0 1.383-.426 3.363 3.363 0 0 0 1.064-1.49l.532-1.17L99.038 52.6h1.6L105 62.495l4.362-9.895z" class="cls-1" data-name="Path 14" transform="translate(-11.902 -19.405)"/>
                    </g>
                    <g id="Group_14" class="cls-2" data-name="Group 14" transform="translate(140 41.888)">
                        <path id="Path_15" d="M125.856 57.092a3.3 3.3 0 0 0 1.17-2.873 3.6 3.6 0 0 0-1.17-2.873 5.734 5.734 0 0 0-3.511-.958H118.2v7.767h4.149a5.973 5.973 0 0 0 3.511-1.064m1.277 7.341l-3.511-5c-.426 0-.851.106-1.277.106H118.2v4.894h-1.6V48.9h5.745a7.022 7.022 0 0 1 4.681 1.383 4.983 4.983 0 0 1 1.7 3.83 5.068 5.068 0 0 1-.958 3.085 5.408 5.408 0 0 1-2.66 1.809l3.724 5.32h-1.7z" class="cls-1" data-name="Path 15" transform="translate(-10.738 -19.642)"/>
                    </g>
                    <g id="Group_15" class="cls-2" data-name="Group 15" transform="translate(140 41.888)">
                        <path id="Path_16" d="M132.466 54.853a4.221 4.221 0 0 0-1.277 2.766h8.192a4 4 0 0 0-1.277-2.766 3.851 3.851 0 0 0-2.873-1.064 4.254 4.254 0 0 0-2.766 1.064m8.405 4.043h-9.68a4.12 4.12 0 0 0 1.383 2.873 4.638 4.638 0 0 0 3.192 1.064 4.318 4.318 0 0 0 2.021-.426 3.478 3.478 0 0 0 1.6-1.17l.851 1.064a4.925 4.925 0 0 1-1.915 1.383 6.827 6.827 0 0 1-5.745-.213 5.129 5.129 0 0 1-2.128-2.128 5.773 5.773 0 0 1-.745-3.085 6.027 6.027 0 0 1 .745-3.085 6.448 6.448 0 0 1 2.022-2.128 5.912 5.912 0 0 1 5.745 0 5.57 5.57 0 0 1 2.022 2.128 5.773 5.773 0 0 1 .745 3.085z" class="cls-1" data-name="Path 16" transform="translate(-9.9 -19.424)"/>
                    </g>
                    <g id="Group_16" class="cls-2" data-name="Group 16" transform="translate(140 41.888)">
                        <path id="Path_17" d="M143.121 63.884a7.168 7.168 0 0 1-2.021-1.064l.745-1.277a4.9 4.9 0 0 0 1.809.958 8.3 8.3 0 0 0 2.341.319 4.471 4.471 0 0 0 2.341-.532 1.443 1.443 0 0 0 .745-1.383 1.037 1.037 0 0 0-.426-.958 3.327 3.327 0 0 0-1.064-.532 16.7 16.7 0 0 0-1.7-.319 17.529 17.529 0 0 1-2.234-.532 4.462 4.462 0 0 1-1.489-.958 2.5 2.5 0 0 1-.638-1.809 2.826 2.826 0 0 1 1.17-2.341 5.4 5.4 0 0 1 3.4-.958 8.1 8.1 0 0 1 2.234.319 5.786 5.786 0 0 1 1.809.745l-.638 1.277a6.075 6.075 0 0 0-3.4-.958 4.324 4.324 0 0 0-2.234.532 1.55 1.55 0 0 0-.745 1.383 1.366 1.366 0 0 0 .426 1.064 3.328 3.328 0 0 0 1.064.532c.426.106 1.064.213 1.809.426a17.532 17.532 0 0 1 2.234.532 3.055 3.055 0 0 1 1.383.851 2.5 2.5 0 0 1 .638 1.809 2.847 2.847 0 0 1-1.277 2.447 5.738 5.738 0 0 1-3.511.851 10.78 10.78 0 0 1-2.766-.426" class="cls-1" data-name="Path 17" transform="translate(-9.172 -19.411)"/>
                    </g>
                    <g id="Group_17" class="cls-2" data-name="Group 17" transform="translate(140 41.888)">
                        <path id="Path_18" d="M158.273 63.6a9.36 9.36 0 0 1-1.064.638 5.39 5.39 0 0 1-1.383.213 3.882 3.882 0 0 1-2.553-.851 3.143 3.143 0 0 1-.851-2.447V54.13H150.4v-1.277h2.021V50.3h1.6v2.553h3.511v1.277h-3.511v6.916a2.613 2.613 0 0 0 .532 1.6 2.1 2.1 0 0 0 1.49.532 2.945 2.945 0 0 0 .958-.106 1.714 1.714 0 0 0 .745-.426z" class="cls-1" data-name="Path 18" transform="translate(-8.577 -19.552)"/>
                    </g>
                    <g id="Group_18" class="cls-2" data-name="Group 18" transform="translate(140 41.888)">
                        <path id="Path_19" d="M165.709 62.395a3.655 3.655 0 0 0 1.383-1.7v-1.918h-3.617c-2.022 0-2.979.638-2.979 2.021a1.914 1.914 0 0 0 .745 1.6 4.948 4.948 0 0 0 4.469 0m1.809-8.831a4.293 4.293 0 0 1 1.17 3.4V64.2H167.2v-1.805a2.952 2.952 0 0 1-1.6 1.383 5.548 5.548 0 0 1-2.447.532 4.654 4.654 0 0 1-3.085-.958 3.027 3.027 0 0 1-1.17-2.447 2.739 2.739 0 0 1 1.064-2.341 5.03 5.03 0 0 1 3.4-.851h3.724v-.745a2.881 2.881 0 0 0-.851-2.234 3.377 3.377 0 0 0-2.447-.745 6.86 6.86 0 0 0-2.128.319 4.437 4.437 0 0 0-1.7.958l-.745-1.17a6.852 6.852 0 0 1 2.128-1.17 7.152 7.152 0 0 1 2.557-.426 5.25 5.25 0 0 1 3.617 1.064" class="cls-1" data-name="Path 19" transform="translate(-8.033 -19.411)"/>
                    </g>
                    <g id="Group_19" class="cls-2" data-name="Group 19" transform="translate(140 41.888)">
                        <path id="Path_20" d="M181.933 52.606V64.2h-1.49v-2.125a3.53 3.53 0 0 1-1.7 1.6 4.615 4.615 0 0 1-2.447.532 5.182 5.182 0 0 1-3.617-1.277 5.1 5.1 0 0 1-1.279-3.73v-6.7h1.6v6.6a4.291 4.291 0 0 0 .851 2.766 3.451 3.451 0 0 0 2.553.958 3.7 3.7 0 0 0 2.873-1.064 4.2 4.2 0 0 0 1.064-3.085v-6.069z" class="cls-1" data-name="Path 20" transform="translate(-7.234 -19.411)"/>
                    </g>
                    <g id="Group_20" class="cls-2" data-name="Group 20" transform="translate(140 41.888)">
                        <path id="Path_21" d="M188 53.038a5.183 5.183 0 0 1 2.66-.638v1.49h-.426a3.929 3.929 0 0 0-2.873 1.17 4.789 4.789 0 0 0-1.064 3.192v5.958h-1.6v-11.6h1.49v2.234A5.866 5.866 0 0 1 188 53.038" class="cls-1" data-name="Path 21" transform="translate(-6.384 -19.418)"/>
                    </g>
                    <g id="Group_21" class="cls-2" data-name="Group 21" transform="translate(140 41.888)">
                        <path id="Path_22" d="M198.109 62.395a3.655 3.655 0 0 0 1.383-1.7v-1.918h-3.617c-2.021 0-2.979.638-2.979 2.021a1.914 1.914 0 0 0 .745 1.6 4.949 4.949 0 0 0 4.469 0m1.809-8.831a4.293 4.293 0 0 1 1.17 3.4V64.2H199.6v-1.805a2.953 2.953 0 0 1-1.6 1.383 5.548 5.548 0 0 1-2.447.532 4.654 4.654 0 0 1-3.085-.958 3.027 3.027 0 0 1-1.17-2.447 2.739 2.739 0 0 1 1.064-2.341 5.03 5.03 0 0 1 3.4-.851h3.724v-.745a2.881 2.881 0 0 0-.851-2.234 3.377 3.377 0 0 0-2.447-.745 6.86 6.86 0 0 0-2.128.319 4.438 4.438 0 0 0-1.7.958l-.745-1.17a6.852 6.852 0 0 1 2.128-1.17 7.152 7.152 0 0 1 2.557-.426 5.251 5.251 0 0 1 3.617 1.064" class="cls-1" data-name="Path 22" transform="translate(-5.962 -19.411)"/>
                    </g>
                    <g id="Group_22" class="cls-2" data-name="Group 22" transform="translate(140 41.888)">
                        <path id="Path_23" d="M213.263 53.771a5.1 5.1 0 0 1 1.277 3.724v6.7h-1.6V57.6a4.291 4.291 0 0 0-.851-2.766 3.451 3.451 0 0 0-2.553-.958 3.942 3.942 0 0 0-2.979 1.064 4.2 4.2 0 0 0-1.064 3.085v6.064h-1.6V52.6h1.49v2.128a3.756 3.756 0 0 1 1.809-1.6 5.181 5.181 0 0 1 2.66-.532 4.2 4.2 0 0 1 3.4 1.17" class="cls-1" data-name="Path 23" transform="translate(-5.156 -19.406)"/>
                    </g>
                    <g id="Group_23" class="cls-2" data-name="Group 23" transform="translate(140 41.888)">
                        <path id="Path_24" d="M223.473 63.6a9.359 9.359 0 0 1-1.064.638 5.39 5.39 0 0 1-1.383.213 3.882 3.882 0 0 1-2.553-.851 3.143 3.143 0 0 1-.851-2.447V54.13H215.6v-1.277h2.021V50.3h1.6v2.553h3.511v1.277h-3.511v6.916a2.613 2.613 0 0 0 .532 1.6 2.1 2.1 0 0 0 1.489.532 2.945 2.945 0 0 0 .958-.106 1.715 1.715 0 0 0 .745-.426z" class="cls-1" data-name="Path 24" transform="translate(-4.408 -19.552)"/>
                    </g>
                </g>
            </g>
        </g>
    </g>
</svg>
