<svg xmlns="http://www.w3.org/2000/svg" id="Group_75" width="32.964" height="32.964" data-name="Group 75" viewBox="0 0 32.964 32.964">
    <defs>
        <style>
            .cls-1{fill:#fff}
        </style>
    </defs>
    <path id="Path_69" d="M1087.578 127.485c0-.124 0-.247-.008-.369a5.586 5.586 0 0 0 1.356-1.458 5.208 5.208 0 0 1-1.561.427 2.789 2.789 0 0 0 1.2-1.561 5.218 5.218 0 0 1-1.725.665 2.7 2.7 0 0 0-1.983-.936 2.745 2.745 0 0 0-2.717 2.832 3.009 3.009 0 0 0 .071.656 7.65 7.65 0 0 1-5.6-3.095 3.047 3.047 0 0 0 .841 3.882 2.6 2.6 0 0 1-1.231-.377v.037a2.886 2.886 0 0 0 2.18 2.86 2.575 2.575 0 0 1-.716.1 2.484 2.484 0 0 1-.511-.056 2.762 2.762 0 0 0 2.538 2.022 5.245 5.245 0 0 1-3.374 1.229 5.17 5.17 0 0 1-.648-.041 7.331 7.331 0 0 0 4.166 1.306c4.989 0 7.722-4.349 7.722-8.123z" class="cls-1" data-name="Path 69" transform="translate(-1065.823 -113.448)"/>
    <path id="Path_70" d="M956.331-33.518A16.482 16.482 0 0 0 939.849-50a16.482 16.482 0 0 0-16.482 16.482 16.482 16.482 0 0 0 16.482 16.482 16.482 16.482 0 0 0 16.482-16.482zm-31.466 0A14.983 14.983 0 0 1 939.849-48.5a14.983 14.983 0 0 1 14.984 14.984 14.983 14.983 0 0 1-14.984 14.984 14.983 14.983 0 0 1-14.984-14.986z" class="cls-1" data-name="Path 70" transform="translate(-923.367 50)"/>
</svg>
