<?xml version="1.0" encoding="iso-8859-1"?>
<!-- Generator: Adobe Illustrator 19.0.0, SVG Export Plug-In . SVG Version: 6.00 Build 0)  -->
<svg version="1.1" id="Capa_1" xmlns="http://www.w3.org/2000/svg" xmlns:xlink="http://www.w3.org/1999/xlink" x="0px" y="0px"
	 viewBox="0 0 512 512" style="enable-background:new 0 0 512 512;" xml:space="preserve">
<path style="fill:#4398D1;" d="M247.466,0v460.8c0,18.85-15.283,34.133-34.133,34.133s-34.133-15.283-34.133-34.133v-17.067h-17.067
	V460.8c0,28.279,22.921,51.2,51.2,51.2s51.2-22.921,51.2-51.2V0H247.466z"/>
<rect x="247.466" y="213.333" style="fill:#3E8CC7;" width="17.067" height="68.267"/>
<path style="fill:#DE4C3C;" d="M460.799,256c-25.924-28.279-69.862-30.182-98.142-4.258c-1.485,1.357-2.901,2.773-4.258,4.258
	c-25.993-28.279-69.99-30.131-98.27-4.13c-1.434,1.314-2.816,2.697-4.13,4.13l-1.024-1.024c-26.513-27.733-70.477-28.715-98.21-2.21
	c-1.092,1.041-2.15,2.125-3.166,3.234c-25.993-28.279-69.99-30.131-98.27-4.13c-1.434,1.314-2.816,2.697-4.13,4.13l0,0
	c0-113.152,87.552-204.8,195.584-204.8h18.432C373.247,51.2,460.799,142.848,460.799,256z"/>
<path style="fill:#CF4737;" d="M408.66,116.821C322.218,217.429,146.09,218.368,55.892,211.285
	c-3.089,14.703-4.659,29.687-4.693,44.715l0,0c25.993-28.279,69.99-30.131,98.27-4.13c1.434,1.314,2.807,2.697,4.13,4.13
	c25.924-28.279,69.862-30.199,98.142-4.275c1.109,1.024,2.193,2.074,3.234,3.166l1.024,1.109c25.993-28.279,69.99-30.131,98.27-4.13
	c1.434,1.314,2.807,2.697,4.13,4.13c25.924-28.279,69.862-30.182,98.142-4.258c1.476,1.357,2.901,2.773,4.258,4.258l0,0
	C461.029,204.791,442.478,155.273,408.66,116.821z"/>
<g>
</g>
<g>
</g>
<g>
</g>
<g>
</g>
<g>
</g>
<g>
</g>
<g>
</g>
<g>
</g>
<g>
</g>
<g>
</g>
<g>
</g>
<g>
</g>
<g>
</g>
<g>
</g>
<g>
</g>
</svg>
